<?xml version="1.0" encoding="UTF-8"?>
<svg version="1.1" xmlns="http://www.w3.org/2000/svg" width="177" height="157">
<path d="M0 0 C10.74482259 -0.13957192 21.48942636 -0.24590969 32.23497391 -0.31087303 C37.22566199 -0.34206662 42.21572579 -0.38431821 47.20605469 -0.45263672 C52.03015957 -0.51825954 56.85366742 -0.55379588 61.67818451 -0.56926346 C63.51047909 -0.58027334 65.34274431 -0.60177186 67.1747818 -0.63438034 C78.8309381 -0.83342803 88.78942485 -0.45599559 97.97979736 7.77261353 C99.5433934 9.4207393 100.76198992 11.0978918 102 13 C102.40992188 13.53625 102.81984375 14.0725 103.2421875 14.625 C107.57288112 21.31517497 106.90840822 30.34609771 106 38 C104.60179972 43.74974195 102.22828061 48.77171939 98 53 C97.34 53 96.68 53 96 53 C96 53.66 96 54.32 96 55 C94.02 55.99 92.04 56.98 90 58 C90.65487434 63.60103444 92.53242657 68.51553739 94.52734375 73.74609375 C94.87632217 74.67543228 95.2253006 75.60477081 95.58485413 76.56227112 C96.69725417 79.52265027 97.8168719 82.48022675 98.9375 85.4375 C100.05361116 88.3915433 101.1680997 91.34617345 102.2794342 94.30201721 C102.96982517 96.13740711 103.66306976 97.97172695 104.35960388 99.80479431 C104.67655716 100.64579178 104.99351044 101.48678925 105.32006836 102.35327148 C105.59684921 103.08352036 105.87363007 103.81376923 106.15879822 104.56614685 C107.23160965 107.67011731 108.09777813 110.84222346 109 114 C101.08 114 93.16 114 85 114 C81.62284544 104.9942545 81.62284544 104.9942545 80.54199219 100.85668945 C80.29874207 99.93245682 80.05549194 99.00822418 79.80487061 98.0559845 C79.55473206 97.08489243 79.30459351 96.11380035 79.046875 95.11328125 C78.65015594 93.58322701 78.65015594 93.58322701 78.24542236 92.02226257 C77.6918044 89.87898804 77.14063482 87.73507973 76.59179688 85.59057617 C75.74920428 82.30940134 74.89049386 79.03270748 74.03125 75.75585938 C73.49379765 73.66692216 72.95730574 71.57773755 72.421875 69.48828125 C72.16363953 68.51111649 71.90540405 67.53395172 71.63934326 66.5271759 C71.40870178 65.61239975 71.1780603 64.6976236 70.94042969 63.75512695 C70.73407898 62.9554097 70.52772827 62.15569244 70.31512451 61.33174133 C69.94428237 58.58772137 70.16634066 56.63815121 71 54 C71.9075 53.4225 72.815 52.845 73.75 52.25 C78.0835255 49.24986696 79.74240896 45.65909226 82 41 C82.495 40.01 82.495 40.01 83 39 C83.69762801 31.56625887 83.58428655 25.12666333 79 19 C70.03390253 9.82538864 57.85375368 7.9535634 45.5 7.75 C40.41429476 7.6698227 40.41429476 7.6698227 36 10 C37.03898437 10.09796875 38.07796875 10.1959375 39.1484375 10.296875 C51.23929957 11.54399922 61.55426385 13.46318789 70 23 C73.03215985 27.86983249 73.48310591 31.87589701 72.703125 37.4375 C70.68915763 44.77729221 66.31374344 49.06163696 60 53 C62.5772856 64.52206999 65.19279884 76.02969065 68.1796875 87.453125 C68.36215027 88.15163071 68.54461304 88.85013641 68.73260498 89.56980896 C69.63133056 93.00055264 70.53978031 96.42844852 71.45898438 99.85375977 C71.78962891 101.10471436 72.12027344 102.35566895 72.4609375 103.64453125 C72.75790527 104.75159424 73.05487305 105.85865723 73.36083984 106.99926758 C73.95273484 109.77809926 74.12936532 112.17202149 74 115 C72.68 115 71.36 115 70 115 C68.06122252 107.63728238 66.12271193 100.27449453 64.18454075 92.91161728 C63.28453505 89.49263875 62.38443791 86.07368435 61.48413086 82.65478516 C60.44878273 78.72305367 59.41383403 74.79121715 58.37890625 70.859375 C57.89448814 69.02013458 57.89448814 69.02013458 57.40028381 67.14373779 C57.10004807 66.00285706 56.79981232 64.86197632 56.49047852 63.68652344 C56.22622574 62.68280701 55.96197296 61.67909058 55.68971252 60.6449585 C55.11292483 58.43305214 54.54893249 56.21895301 54 54 C54.60328125 53.56429687 55.2065625 53.12859375 55.828125 52.6796875 C61.57348873 48.39846485 65.68384458 44.94846626 68 38 C68.57192521 32.37606881 68.1274975 28.60005352 64.8828125 23.890625 C59.34012476 18.32493856 49.54341989 14.14760411 41.70776367 13.93896484 C40.51244019 13.94984131 40.51244019 13.94984131 39.29296875 13.9609375 C38.08483521 13.96939697 38.08483521 13.96939697 36.85229492 13.97802734 C36.2410376 13.98527832 35.62978027 13.9925293 35 14 C35.00222061 14.90851715 35.00444122 15.8170343 35.00672913 16.75308228 C35.02688009 25.37238035 35.04204896 33.99167036 35.05181217 42.61098671 C35.05700047 47.04079835 35.06402324 51.47059031 35.07543945 55.90039062 C35.08641396 60.18628504 35.09230724 64.47216069 35.09487724 68.75806808 C35.09670554 70.38207672 35.10027479 72.00608449 35.10573006 73.63008499 C35.21769166 108.3859369 35.21769166 108.3859369 25.05078125 119.0546875 C17.6260724 126.09755418 10.4726586 127.36113006 0.625 127.375 C-0.2825 127.39949219 -1.19 127.42398438 -2.125 127.44921875 C-9.56218933 127.48136798 -14.98779779 125.8577303 -20.4375 120.6875 C-22.40577218 117.30207185 -22.93128022 114.91702755 -23 111 C-21.76500671 107.43224161 -20.60665099 105.52239391 -17.75 103.0625 C-14.06842583 101.64007361 -11.79548504 102.03387653 -8 103 C-5.796875 104.203125 -5.796875 104.203125 -4 106 C-3.64453125 108.6640625 -3.64453125 108.6640625 -3.8125 111.625 C-3.89944742 113.41564677 -3.96788737 115.20753118 -4 117 C-2.98203191 118.23865033 -2.98203191 118.23865033 -0.85546875 118.1328125 C0.02496094 118.13023437 0.90539062 118.12765625 1.8125 118.125 C2.68519531 118.12757813 3.55789062 118.13015625 4.45703125 118.1328125 C6.90646096 118.0048853 8.72216355 117.9006326 11 117 C14.18161067 111.00831193 14.43054098 104.04729045 14.35644531 97.40698242 C14.35848969 96.50647156 14.36053406 95.60596069 14.36264038 94.67816162 C14.36561948 91.7370492 14.34726226 88.79651341 14.328125 85.85546875 C14.32506298 83.7966577 14.32319023 81.73784457 14.32244873 79.67903137 C14.31786415 75.38139822 14.30350557 71.08395438 14.28125 66.78637695 C14.25288002 61.28076334 14.24202722 55.77529782 14.2375679 50.26961803 C14.23341115 46.02570624 14.22359293 41.78182422 14.21169281 37.53792763 C14.20600262 35.50736032 14.20123982 33.47679019 14.19742584 31.44621849 C14.19054637 28.61277616 14.17690808 25.77944997 14.16113281 22.94604492 C14.16001495 22.11011307 14.15889709 21.27418121 14.15774536 20.41291809 C14.12874634 16.47738842 13.96996772 12.84256212 13 9 C12.14535156 8.86722656 11.29070313 8.73445313 10.41015625 8.59765625 C8.75306641 8.33275391 8.75306641 8.33275391 7.0625 8.0625 C5.96035156 7.88847656 4.85820313 7.71445312 3.72265625 7.53515625 C1 7 1 7 0 6 C-0.04080783 4.00041636 -0.04254356 1.99954746 0 0 Z " fill="#0E0E0E" transform="translate(35,23)"/>
<path d="M0 0 C12.88305369 -0.55300866 23.8386919 0.87222 33.7890625 9.5625 C37.40169332 13.26073819 38.93486164 16.48840945 39.1640625 21.671875 C38.63054402 29.24275624 35.46270639 34.84448736 30 40 C28.67256057 41.00781066 27.33985338 42.00875296 26 43 C26.17539307 43.69046921 26.35078613 44.38093842 26.53149414 45.09233093 C28.18562182 51.60853974 29.83404479 58.12616202 31.47612 64.64541912 C32.32046942 67.99675518 33.16699268 71.3475102 34.01855469 74.69702148 C34.99808376 78.55027913 35.96803158 82.40591702 36.9375 86.26171875 C37.24373291 87.46084396 37.54996582 88.65996918 37.86547852 89.89543152 C38.28591431 91.5766082 38.28591431 91.5766082 38.71484375 93.29174805 C38.96355225 94.27547897 39.21226074 95.2592099 39.46850586 96.27275085 C39.98557135 98.92596246 40.10099281 101.30521489 40 104 C38.68 104 37.36 104 36 104 C34.06122252 96.63728238 32.12271193 89.27449453 30.18454075 81.91161728 C29.28453505 78.49263875 28.38443791 75.07368435 27.48413086 71.65478516 C26.44878273 67.72305367 25.41383403 63.79121715 24.37890625 59.859375 C23.89448814 58.02013458 23.89448814 58.02013458 23.40028381 56.14373779 C23.10004807 55.00285706 22.79981232 53.86197632 22.49047852 52.68652344 C22.22622574 51.68280701 21.96197296 50.67909058 21.68971252 49.6449585 C21.11292483 47.43305214 20.54893249 45.21895301 20 43 C20.60328125 42.56429687 21.2065625 42.12859375 21.828125 41.6796875 C27.57348873 37.39846485 31.68384458 33.94846626 34 27 C34.57192521 21.37606881 34.1274975 17.60005352 30.8828125 12.890625 C24.25040597 6.23069812 13.75330706 2.9264171 4.5625 2.875 C3.04142704 2.90673625 1.52040718 2.94493495 0 3 C0 2.01 0 1.02 0 0 Z " fill="#434342" transform="translate(69,34)"/>
<path d="M0 0 C12.88305369 -0.55300866 23.8386919 0.87222 33.7890625 9.5625 C37.40169332 13.26073819 38.93486164 16.48840945 39.1640625 21.671875 C38.63985453 29.11063572 35.58556305 35.07553016 30 40 C28.02379014 41.04622875 26.0262871 42.05439935 24 43 C22.14684743 45.04946399 22.14684743 45.04946399 21 47 C20.67 45.68 20.34 44.36 20 43 C20.60328125 42.56429687 21.2065625 42.12859375 21.828125 41.6796875 C27.57348873 37.39846485 31.68384458 33.94846626 34 27 C34.57192521 21.37606881 34.1274975 17.60005352 30.8828125 12.890625 C24.25040597 6.23069812 13.75330706 2.9264171 4.5625 2.875 C3.04142704 2.90673625 1.52040718 2.94493495 0 3 C0 2.01 0 1.02 0 0 Z " fill="#3C3B3A" transform="translate(69,34)"/>
<path d="M0 0 C0.66 0 1.32 0 2 0 C2 0.99 2 1.98 2 3 C2.66 3 3.32 3 4 3 C4.84357963 6.059771 5.6730202 9.1232046 6.5 12.1875 C6.73847656 13.05181641 6.97695312 13.91613281 7.22265625 14.80664062 C7.44824219 15.64775391 7.67382812 16.48886719 7.90625 17.35546875 C8.11572266 18.12528076 8.32519531 18.89509277 8.54101562 19.68823242 C9.03538729 22.17823523 9.07833519 24.46781499 9 27 C7.68 27 6.36 27 5 27 C4.14983276 24.00451712 3.32305414 21.00303537 2.5 18 C2.14228516 16.74123047 2.14228516 16.74123047 1.77734375 15.45703125 C0.33135373 10.12752518 -0.2555952 5.52085633 0 0 Z " fill="#535352" transform="translate(100,111)"/>
<path d="M0 0 C9.87349792 -0.42382265 20.02082739 -0.57867118 28 6 C27.01 7.485 27.01 7.485 26 9 C25.18015625 8.65066406 24.3603125 8.30132812 23.515625 7.94140625 C22.43796875 7.48636719 21.3603125 7.03132813 20.25 6.5625 C19.18265625 6.11003906 18.1153125 5.65757813 17.015625 5.19140625 C12.70161998 3.48703898 9.39141633 2.87642873 4.75 2.9375 C3.41195312 2.95103516 3.41195312 2.95103516 2.046875 2.96484375 C1.37140625 2.97644531 0.6959375 2.98804688 0 3 C0 2.01 0 1.02 0 0 Z " fill="#3B3B3A" transform="translate(69,34)"/>
<path d="M0 0 C0.99 0.33 1.98 0.66 3 1 C3.66 5.62 4.32 10.24 5 15 C4.01 15 3.02 15 2 15 C2 14.01 2 13.02 2 12 C1.34 12 0.68 12 0 12 C-1.17661508 8.32307787 -1.14475933 4.8361222 -1 1 C-0.67 0.67 -0.34 0.34 0 0 Z " fill="#2D2C2C" transform="translate(92,76)"/>
<path d="M0 0 C0.66 0 1.32 0 2 0 C2 0.99 2 1.98 2 3 C2.66 3 3.32 3 4 3 C5.3271261 6.9813783 5.06915913 10.85045227 5 15 C4.34 15 3.68 15 3 15 C0.31780178 9.63560356 -0.3152595 5.98993047 0 0 Z " fill="#2E2D2D" transform="translate(100,111)"/>
<path d="M0 0 C2.56616632 3.84924948 2.55097676 6.4349304 3 11 C2.67 10.34 2.34 9.68 2 9 C1.34 9 0.68 9 0 9 C-0.33 10.32 -0.66 11.64 -1 13 C-3.42857143 5.57142857 -3.42857143 5.57142857 -2 2 C-2 2.99 -2 3.98 -2 5 C-1.34 4.67 -0.68 4.34 0 4 C0 2.68 0 1.36 0 0 Z " fill="#787877" transform="translate(96,86)"/>
<path d="M0 0 C0.66 0.99 1.32 1.98 2 3 C-0.50999108 5.15142093 -2.57080348 6.84029897 -5.6875 8 C-8.1614224 8.80796657 -8.1614224 8.80796657 -9.3125 11.125 C-9.539375 11.74375 -9.76625 12.3625 -10 13 C-10.33 11.68 -10.66 10.36 -11 9 C-10.37351562 8.51789063 -9.74703125 8.03578125 -9.1015625 7.5390625 C-7.87566406 6.59160156 -7.87566406 6.59160156 -6.625 5.625 C-5.81289062 4.99851562 -5.00078125 4.37203125 -4.1640625 3.7265625 C-1.95776805 2.03226506 -1.95776805 2.03226506 0 0 Z " fill="#BBBAB9" transform="translate(100,68)"/>
<path d="M0 0 C0.99 0.33 1.98 0.66 3 1 C3 2.65 3 4.3 3 6 C2.67 5.34 2.34 4.68 2 4 C1.34 4 0.68 4 0 4 C-0.33 5.32 -0.66 6.64 -1 8 C-1.04241723 5.66705225 -1.04092937 3.33297433 -1 1 C-0.67 0.67 -0.34 0.34 0 0 Z " fill="#5B5A59" transform="translate(92,76)"/>
<path d="M0 0 C1.125 1.6875 1.125 1.6875 2 4 C1.125 6.75 1.125 6.75 0 9 C-0.66 9 -1.32 9 -2 9 C-1.51421457 5.87709365 -1.0013988 3.00419641 0 0 Z " fill="#737371" transform="translate(103,61)"/>
<path d="M0 0 C0.33 0 0.66 0 1 0 C1 1.65 1 3.3 1 5 C1.66 5 2.32 5 3 5 C2.67 6.65 2.34 8.3 2 10 C1.34 10 0.68 10 0 10 C0 6.7 0 3.4 0 0 Z " fill="#454543" transform="translate(104,55)"/>
<path d="M0 0 C0 0.33 0 0.66 0 1 C-8.57142857 2.42857143 -8.57142857 2.42857143 -12 0 C-7.74433453 -1.16063604 -4.3164922 -0.76173392 0 0 Z " fill="#5E5E5D" transform="translate(91,36)"/>
</svg>
